:FULLY-SPECIFIED
:FORCE-ALL-JOINTS-BE-3DOF
:DEGREES
2548
root 4.01578 13.8363 -23.9894 973.819 78.5219 -108.036
lfemur -35.081 5.70171 -14.7612
ltibia 87.3282 0 0
lfoot -25.6503 27.7698 0
ltoes -42.4948 0 0
rfemur -57.5539 -21.9817 12.7201
rtibia 54.0179 0 0
rfoot -0.681525 5.9908 0
rtoes 3.94725 0 0
lowerback 17.4189 0.180571 -4.58849
upperback -0.732895 -0.385396 2.97007
thorax -10.606 0.187079 5.98099
lowerneck 5.00634 -14.6793 -15.1811
upperneck -0.00863897 -20.5235 15.0671
head 2.32974 -10.4054 6.22542
lclavicle -6.45159e-015 -1.39995e-014 0
lhumerus -50.1132 -44.4781 113.075
lradius 106.55 0 0
lwrist 80.1152 0 0
lhand 7.742 399.936 0
lfingers 7.12502 0 0
lthumb 32.9809 -653.067 0
rclavicle -6.45159e-015 -1.39995e-014 0
rhumerus 10.422 -9.2214 -59.6371
rradius 79.6239 0 0
rwrist 19.0303 0 0
rhand -34.5793 -404.102 0
rfingers 7.12502 0 0
rthumb -7.7354 286.217 0
2549
root 3.96658 13.8664 -24.1323 981.739 76.9033 -100.04
lfemur -34.4624 4.01471 -15.5647
ltibia 86.6788 0 0
lfoot -25.1817 28.2386 0
ltoes -43.219 0 0
rfemur -57.6828 -21.079 13.4511
rtibia 52.0337 0 0
rfoot -1.21492 5.22601 0
rtoes 2.67371 0 0
lowerback 17.6154 0.327973 -4.84878
upperback -0.628896 -0.260247 2.92413
thorax -10.622 0.257073 6.04854
lowerneck 4.99337 -14.6867 -15.1958
upperneck -0.0736483 -20.5309 15.1779
head 2.3278 -10.41 6.25938
lclavicle -7.52068e-015 -1.38413e-014 0
lhumerus -49.0345 -44.6061 112.568
lradius 106.129 0 0
lwrist 79.5881 0 0
lhand 7.53166 399.854 0
lfingers 7.12502 0 0
lthumb 32.7808 -653.107 0
rclavicle -7.52068e-015 -1.38413e-014 0
rhumerus 11.2958 -7.36338 -59.2139
rradius 80.4444 0 0
rwrist 16.5244 0 0
rhand -33.506 -402.862 0
rfingers 7.12502 0 0
rthumb -6.69923 287.442 0
2550
root 3.91737 13.8966 -24.2751 989.938 75.1972 -91.7639
lfemur -33.8172 2.29092 -16.399
ltibia 85.9945 0 0
lfoot -24.7125 28.7197 0
ltoes -43.9685 0 0
rfemur -57.8172 -20.1601 14.2153
rtibia 49.9974 0 0
rfoot -1.78903 4.42697 0
rtoes 1.32758 0 0
lowerback 17.8183 0.480988 -5.12549
upperback -0.522297 -0.131646 2.87653
thorax -10.6392 0.329534 6.12285
lowerneck 4.97939 -14.6949 -15.212
upperneck -0.137225 -20.5395 15.2915
head 2.3271 -10.4153 6.29403
lclavicle -8.55017e-015 -1.3683e-014 0
lhumerus -47.9102 -44.7355 112.043
lradius 105.69 0 0
lwrist 79.0445 0 0
lhand 7.31858 399.774 0
lfingers 7.12502 0 0
lthumb 32.578 -653.146 0
rclavicle -8.55017e-015 -1.3683e-014 0
rhumerus 12.2145 -5.42957 -58.7752
rradius 81.3121 0 0
rwrist 13.9488 0 0
rhand -32.3909 -401.573 0
rfingers 7.12502 0 0
rthumb -5.62269 288.717 0
2551
root 3.86817 13.9267 -24.418 998.329 73.414 -83.2967
lfemur -33.1576 0.554065 -17.2541
ltibia 85.2856 0 0
lfoot -24.2483 29.2078 0
ltoes -44.731 0 0
rfemur -57.9554 -19.2342 15.0038
rtibia 47.9457 0 0
rfoot -2.39564 3.59875 0
rtoes -0.0672443 0 0
lowerback 18.0253 0.637778 -5.41425
upperback -0.414385 -0.00094035 2.82769
thorax -10.6575 0.403626 6.2022
lowerneck 4.96465 -14.7038 -15.2293
upperneck -0.198953 -20.5492 15.4076
head 2.32764 -10.4211 6.32927
lclavicle -9.53384e-015 -1.3522e-014 0
lhumerus -46.7484 -44.8698 111.503
lradius 105.237 0 0
lwrist 78.4894 0 0
lhand 7.10378 399.696 0
lfingers 7.12502 0 0
lthumb 32.3735 -653.183 0
rclavicle -9.53384e-015 -1.3522e-014 0
rhumerus 13.1763 -3.43803 -58.3184
rradius 82.2159 0 0
rwrist 11.3343 0 0
rhand -31.2465 -400.251 0
rfingers 7.12502 0 0
rthumb -4.51788 290.023 0
2552
root 3.81896 13.9568 -24.5608 1006.83 71.5644 -74.7279
lfemur -32.4958 -1.17212 -18.1203
ltibia 84.5621 0 0
lfoot -23.7947 29.6976 0
ltoes -45.4938 0 0
rfemur -58.0961 -18.3108 15.8076
rtibia 45.9151 0 0
rfoot -3.02655 2.7464 0
rtoes -1.48689 0 0
lowerback 18.2342 0.796509 -5.71067
upperback -0.306447 0.130523 2.77805
thorax -10.6769 0.478511 6.2849
lowerneck 4.9494 -14.7132 -15.2474
upperneck -0.258413 -20.5599 15.5257
head 2.32941 -10.4275 6.36498
lclavicle -1.04655e-014 -1.33552e-014 0
lhumerus -45.5573 -45.0127 110.953
lradius 104.773 0 0
lwrist 77.9276 0 0
lhand 6.88822 399.622 0
lfingers 7.12502 0 0
lthumb 32.1683 -653.215 0
rclavicle -1.04655e-014 -1.33552e-014 0
rhumerus 14.1795 -1.4068 -57.841
rradius 83.1448 0 0
rwrist 8.71208 0 0
rhand -30.0854 -398.912 0
rfingers 7.12502 0 0
rthumb -3.39694 291.347 0
2553
root 3.76976 13.9869 -24.7037 1015.34 69.6588 -66.1471
lfemur -31.844 -2.86389 -18.9879
ltibia 83.8343 0 0
lfoot -23.3574 30.1839 0
ltoes -46.2445 0 0
rfemur -58.2375 -17.3991 16.6178
rtibia 43.9425 0 0
rfoot -3.67357 1.875 0
rtoes -2.90748 0 0
lowerback 18.4426 0.955345 -6.01039
upperback -0.199769 0.261397 2.72803
thorax -10.6973 0.553352 6.36924
lowerneck 4.93389 -14.723 -15.266
upperneck -0.315189 -20.5714 15.6456
head 2.33241 -10.4342 6.40106
lclavicle -1.13389e-014 -1.318e-014 0
lhumerus -44.3448 -45.168 110.399
lradius 104.302 0 0
lwrist 77.3642 0 0
lhand 6.67289 399.556 0
lfingers 7.12502 0 0
lthumb 31.9633 -653.24 0
rclavicle -1.13389e-014 -1.318e-014 0
rhumerus 15.2225 0.646092 -57.3407
rradius 84.0879 0 0
rwrist 6.11297 0 0
rhand -28.9202 -397.573 0
rfingers 7.12502 0 0
rthumb -2.27196 292.671 0
2554
root 3.72055 14.017 -24.8465 1023.79 67.7078 -57.6438
lfemur -31.2144 -4.49751 -19.8469
ltibia 83.1123 0 0
lfoot -22.9421 30.6614 0
ltoes -46.9705 0 0
rfemur -58.3781 -16.5085 17.4257
rtibia 42.0642 0 0
rfoot -4.32848 0.989604 0
rtoes -4.30511 0 0
lowerback 18.6483 1.11245 -6.30903
upperback -0.0956389 0.390334 2.67805
thorax -10.7186 0.627311 6.45351
lowerneck 4.91836 -14.7329 -15.2849
upperneck -0.368864 -20.5836 15.7669
head 2.33662 -10.4413 6.4374
lclavicle -1.21479e-014 -1.29934e-014 0
lhumerus -43.1193 -45.3393 109.844
lradius 103.828 0 0
lwrist 76.804 0 0
lhand 6.45879 399.499 0
lfingers 7.12502 0 0
lthumb 31.7594 -653.256 0
rclavicle -1.21479e-014 -1.29934e-014 0
rhumerus 16.3036 2.70259 -56.8148
rradius 85.034 0 0
rwrist 3.56797 0 0
rhand -27.7633 -396.249 0
rfingers 7.12502 0 0
rthumb -1.15507 293.98 0
2555
root 3.67135 14.0471 -24.9894 1032.09 65.7218 -49.3074
lfemur -30.6191 -6.04926 -20.6876
ltibia 82.4062 0 0
lfoot -22.5544 31.1248 0
ltoes -47.6593 0 0
rfemur -58.5164 -15.6483 18.2221
rtibia 40.3171 0 0
rfoot -4.9831 0.0952894 0
rtoes -5.65591 0 0
lowerback 18.8489 1.26599 -6.6022
upperback 0.00465679 0.515988 2.62856
thorax -10.7407 0.69955 6.53601
lowerneck 4.90307 -14.7428 -15.3038
upperneck -0.41902 -20.5963 15.8892
head 2.34204 -10.4487 6.47388
lclavicle -1.28862e-014 -1.27927e-014 0
lhumerus -41.8887 -45.5302 109.295
lradius 103.353 0 0
lwrist 76.2521 0 0
lhand 6.2469 399.452 0
lfingers 7.12502 0 0
lthumb 31.5576 -653.263 0
rclavicle -1.28862e-014 -1.27927e-014 0
rhumerus 17.4209 4.74466 -56.261
rradius 85.9721 0 0
rwrist 1.10806 0 0
rhand -26.6273 -394.957 0
rfingers 7.12502 0 0
rthumb -0.0583814 295.257 0
2556
root 3.62214 14.0773 -25.1322 1040.14 63.7114 -41.2274
lfemur -30.0705 -7.49538 -21.5002
ltibia 81.7262 0 0
lfoot -22.1999 31.5689 0
ltoes -48.2984 0 0
rfemur -58.6507 -14.8278 18.9983
rtibia 38.7378 0 0
rfoot -5.6292 -0.802881 0
rtoes -6.93599 0 0
lowerback 19.0423 1.41412 -6.88555
upperback 0.0998312 0.637012 2.57996
thorax -10.7636 0.769233 6.61503
lowerneck 4.88826 -14.7525 -15.3223
upperneck -0.465239 -20.6093 16.0121
head 2.34867 -10.4562 6.5104
lclavicle -1.35477e-014 -1.2575e-014 0
lhumerus -40.6612 -45.7445 108.755
lradius 102.882 0 0
lwrist 75.7134 0 0
lhand 6.03819 399.419 0
lfingers 7.12502 0 0
lthumb 31.3588 -653.256 0
rclavicle -1.35477e-014 -1.2575e-014 0
rhumerus 18.5729 6.75426 -55.6767
rradius 86.8913 0 0
rwrist -1.23582 0 0
rhand -25.5248 -393.713 0
rfingers 7.12502 0 0
rthumb 1.00599 296.486 0
2557
root 3.57294 14.1074 -25.2751 1047.87 61.6872 -33.4933
lfemur -29.5807 -8.81215 -22.2748
ltibia 81.0826 0 0
lfoot -21.8844 31.9884 0
ltoes -48.8753 0 0
rfemur -58.7795 -14.0565 19.7453
rtibia 37.3627 0 0
rfoot -6.2586 -1.69984 0
rtoes -8.12146 0 0
lowerback 19.226 1.55502 -7.15469
upperback 0.188597 0.752058 2.5327
thorax -10.7871 0.835522 6.68887
lowerneck 4.87418 -14.7618 -15.3403
upperneck -0.507105 -20.6226 16.1354
head 2.35648 -10.4639 6.54683
lclavicle -1.41262e-014 -1.23374e-014 0
lhumerus -39.4449 -45.9857 108.229
lradius 102.419 0 0
lwrist 75.1927 0 0
lhand 5.83366 399.402 0
lfingers 7.12502 0 0
lthumb 31.164 -653.235 0
rclavicle -1.41262e-014 -1.23374e-014 0
rhumerus 19.7579 8.71333 -55.0595
rradius 87.7805 0 0
rwrist -3.43268 0 0
rhand -24.4684 -392.533 0
rfingers 7.12502 0 0
rthumb 2.02594 297.652 0
